<mxfile host="app.diagrams.net" modified="2022-08-04T13:43:55.656Z" agent="5.0 (Macintosh; Intel Mac OS X 10_15_7) AppleWebKit/537.36 (KHTML, like Gecko) Chrome/103.0.0.0 Safari/537.36" etag="sRHy8_NW_H8zI8nCeV5h" version="20.2.3" type="github">
  <diagram id="o8YjSROn_AFCNBY6l8RM" name="第 1 页">
    <mxGraphModel dx="1234" dy="739" grid="0" gridSize="10" guides="1" tooltips="1" connect="1" arrows="1" fold="1" page="0" pageScale="1" pageWidth="827" pageHeight="1169" math="0" shadow="0">
      <root>
        <mxCell id="0" />
        <mxCell id="1" parent="0" />
        <mxCell id="OryWQzoYKtPWbWz9CgvQ-1" value="JuvenilesHelper（未成年适配逻辑入口类）" style="swimlane;fontStyle=1;align=center;verticalAlign=top;childLayout=stackLayout;horizontal=1;startSize=26;horizontalStack=0;resizeParent=1;resizeParentMax=0;resizeLast=0;collapsible=1;marginBottom=0;" vertex="1" parent="1">
          <mxGeometry x="300" y="280" width="310" height="180" as="geometry" />
        </mxCell>
        <mxCell id="OryWQzoYKtPWbWz9CgvQ-2" value="- mModel: JuvenilesModel&#xa;- mPoller: JuvenilesPoller&#xa;- mLogger: JuvenilesLogger&#xa;- mSubscriptionStore: SubscriptionStore&#xa;- static mVerifyKey: String" style="text;strokeColor=none;fillColor=none;align=left;verticalAlign=top;spacingLeft=4;spacingRight=4;overflow=hidden;rotatable=0;points=[[0,0.5],[1,0.5]];portConstraint=eastwest;" vertex="1" parent="OryWQzoYKtPWbWz9CgvQ-1">
          <mxGeometry y="26" width="310" height="94" as="geometry" />
        </mxCell>
        <mxCell id="OryWQzoYKtPWbWz9CgvQ-3" value="" style="line;strokeWidth=1;fillColor=none;align=left;verticalAlign=middle;spacingTop=-1;spacingLeft=3;spacingRight=3;rotatable=0;labelPosition=right;points=[];portConstraint=eastwest;" vertex="1" parent="OryWQzoYKtPWbWz9CgvQ-1">
          <mxGeometry y="120" width="310" height="8" as="geometry" />
        </mxCell>
        <mxCell id="OryWQzoYKtPWbWz9CgvQ-4" value="+ beforeRecharge(JuvenilesCallback callback)&#xa;+ static getLatestVerifyKey(): String" style="text;strokeColor=none;fillColor=none;align=left;verticalAlign=top;spacingLeft=4;spacingRight=4;overflow=hidden;rotatable=0;points=[[0,0.5],[1,0.5]];portConstraint=eastwest;" vertex="1" parent="OryWQzoYKtPWbWz9CgvQ-1">
          <mxGeometry y="128" width="310" height="52" as="geometry" />
        </mxCell>
        <mxCell id="OryWQzoYKtPWbWz9CgvQ-5" value="JuvenilesCallback" style="swimlane;fontStyle=1;align=center;verticalAlign=top;childLayout=stackLayout;horizontal=1;startSize=26;horizontalStack=0;resizeParent=1;resizeParentMax=0;resizeLast=0;collapsible=1;marginBottom=0;" vertex="1" parent="1">
          <mxGeometry x="690" y="180" width="318" height="80" as="geometry" />
        </mxCell>
        <mxCell id="OryWQzoYKtPWbWz9CgvQ-8" value="+ onSucceed(String verifyKey)&#xa;+ onFailed(String msg)&#xa;" style="text;strokeColor=none;fillColor=none;align=left;verticalAlign=top;spacingLeft=4;spacingRight=4;overflow=hidden;rotatable=0;points=[[0,0.5],[1,0.5]];portConstraint=eastwest;" vertex="1" parent="OryWQzoYKtPWbWz9CgvQ-5">
          <mxGeometry y="26" width="318" height="54" as="geometry" />
        </mxCell>
        <mxCell id="OryWQzoYKtPWbWz9CgvQ-9" value="JuvenilesModel" style="swimlane;fontStyle=1;align=center;verticalAlign=top;childLayout=stackLayout;horizontal=1;startSize=26;horizontalStack=0;resizeParent=1;resizeParentMax=0;resizeLast=0;collapsible=1;marginBottom=0;" vertex="1" parent="1">
          <mxGeometry x="690" y="290" width="320" height="70" as="geometry" />
        </mxCell>
        <mxCell id="OryWQzoYKtPWbWz9CgvQ-12" value="+ requestAuthInfo(): AuthInfo&#xa;+ requestAuthResultInfo(String verifyKey): AuthResultInfo" style="text;strokeColor=none;fillColor=none;align=left;verticalAlign=top;spacingLeft=4;spacingRight=4;overflow=hidden;rotatable=0;points=[[0,0.5],[1,0.5]];portConstraint=eastwest;" vertex="1" parent="OryWQzoYKtPWbWz9CgvQ-9">
          <mxGeometry y="26" width="320" height="44" as="geometry" />
        </mxCell>
        <mxCell id="OryWQzoYKtPWbWz9CgvQ-13" value="JuvenilesPoller（轮询器）" style="swimlane;fontStyle=1;align=center;verticalAlign=top;childLayout=stackLayout;horizontal=1;startSize=26;horizontalStack=0;resizeParent=1;resizeParentMax=0;resizeLast=0;collapsible=1;marginBottom=0;" vertex="1" parent="1">
          <mxGeometry x="690" y="380" width="319" height="70" as="geometry" />
        </mxCell>
        <mxCell id="OryWQzoYKtPWbWz9CgvQ-14" value="+ start(JuvenilesCallback callback, String verifyKey)" style="text;strokeColor=none;fillColor=none;align=left;verticalAlign=top;spacingLeft=4;spacingRight=4;overflow=hidden;rotatable=0;points=[[0,0.5],[1,0.5]];portConstraint=eastwest;" vertex="1" parent="OryWQzoYKtPWbWz9CgvQ-13">
          <mxGeometry y="26" width="319" height="44" as="geometry" />
        </mxCell>
        <mxCell id="OryWQzoYKtPWbWz9CgvQ-15" value="SubscriptionStore（rx订阅管理类）" style="swimlane;fontStyle=1;align=center;verticalAlign=top;childLayout=stackLayout;horizontal=1;startSize=26;horizontalStack=0;resizeParent=1;resizeParentMax=0;resizeLast=0;collapsible=1;marginBottom=0;" vertex="1" parent="1">
          <mxGeometry x="690" y="470" width="320" height="90" as="geometry" />
        </mxCell>
        <mxCell id="OryWQzoYKtPWbWz9CgvQ-16" value="+ cacheSubscription(Subscription subscription): String&#xa;+ removeSubscription(String key)&#xa;+ clear()" style="text;strokeColor=none;fillColor=none;align=left;verticalAlign=top;spacingLeft=4;spacingRight=4;overflow=hidden;rotatable=0;points=[[0,0.5],[1,0.5]];portConstraint=eastwest;" vertex="1" parent="OryWQzoYKtPWbWz9CgvQ-15">
          <mxGeometry y="26" width="320" height="64" as="geometry" />
        </mxCell>
      </root>
    </mxGraphModel>
  </diagram>
</mxfile>
